# xmcd CD database file
# Copyright (C) 1996 Ti Kan
#
# Track frame offsets:
#	182
#	15472
#	28095
#	41650
#	52465
#	65510
#	77292
#	97120
#	109725
#	127510
#	142957
#	155042
#
# Disc length: 2275 seconds
#
# Revision: 1
# Processed by: cddbd v1.4b41PL1 Copyright (c) Steve Scherf et al.
# Submitted via: EasyCD 2.21 - (C) 1996 Greg Leichner
#
DISCID=9a08e10c
DTITLE=Kenny Rogers - Ruby Don't Take Your Love To Town
DYEAR=1900
DGENRE=
TTITLE0=Tell It All Brother
TTITLE1=Love Woman
TTITLE2=Shine On Ruby Moutain
TTITLE3=We All Got To Help
TTITLE4=Ruby Don't Take Your Love To Town
TTITLE5=Me And Bobby Magee
TTITLE6=Lay It Down
TTITLE7=Reuben James
TTITLE8=Something's Burning
TTITLE9=For The Good Times
TTITLE10=Elvira
TTITLE11=Tulsa Turn Around
EXTD=
EXTT0=
EXTT1=
EXTT2=
EXTT3=
EXTT4=
EXTT5=
EXTT6=
EXTT7=
EXTT8=
EXTT9=
EXTT10=
EXTT11=
PLAYORDER=
